<svg width="24" height="25" viewBox="0 0 24 25" fill="none" xmlns="http://www.w3.org/2000/svg">
<path fill-rule="evenodd" clip-rule="evenodd" d="M15.4157 12.9196V15.4346C15.4157 16.9533 14.1566 18.1958 12.6177 18.1958V14.4129L12.6172 11.3639C12.6172 11.068 12.8625 10.7018 13.1624 10.5501L23.4148 5.36418C23.7148 5.21246 23.9601 5.3305 23.9601 5.62634V8.35954L15.4157 12.9196L15.4157 12.9196Z" fill="white"/>
<path fill-rule="evenodd" clip-rule="evenodd" d="M12.6177 9.37651L12.6172 6.3275C12.6172 6.03159 12.8625 5.66542 13.1624 5.5137L23.4148 0.327797C23.7148 0.176072 23.9601 0.294158 23.9601 0.589976V3.64441L12.6177 9.3765V9.37651Z" fill="white"/>
<path fill-rule="evenodd" clip-rule="evenodd" d="M20.3005 16.5398C13.1134 20.8372 12.4757 19.0553 12.6631 24.2719L23.9598 18.2558L24.0013 10.863L20.3115 12.7463V16.5449L20.3005 16.5398H20.3005Z" fill="white"/>
<path fill-rule="evenodd" clip-rule="evenodd" d="M3.70077 16.5322C10.8879 20.8296 11.5256 19.0477 11.3381 24.2644L0.0415181 18.2483L0 10.8555L3.68981 12.7388V16.5373L3.70075 16.5322H3.70077Z" fill="white"/>
<path fill-rule="evenodd" clip-rule="evenodd" d="M11.273 18.1706L11.2799 6.12542C11.2799 6.12542 11.1994 5.41684 10.4442 5.27021L0.686132 0.232092C0.686132 0.232092 0.350703 -0.0234151 0.0273438 0.625435L0.0298838 7.05024C0.0298838 7.05024 0.213315 9.1928 2.70111 9.82806L2.71202 6.13484C2.71202 6.13484 3.00216 4.75821 4.1385 5.84313L4.14225 10.6698C4.14225 10.6698 4.38047 13.1771 7.01407 13.5595L6.98646 7.14113C6.98646 7.14113 7.81055 7.23421 8.53227 9.03344L8.56072 15.3079C8.56072 15.3079 8.99189 17.9134 11.273 18.1706H11.273Z" fill="white"/>
</svg>
